<svg width="26" height="26" viewBox="0 0 26 26" fill="none" xmlns="http://www.w3.org/2000/svg">
<rect width="26" height="26" rx="13" fill="black"/>
<path d="M9.55118 18.026C8.70185 18.026 7.93485 17.8527 7.25018 17.506C6.57418 17.1507 6.04118 16.6263 5.65118 15.933C5.26118 15.2397 5.06618 14.386 5.06618 13.372C5.06618 12.358 5.26118 11.4827 5.65118 10.746C6.04985 10.0093 6.59152 9.446 7.27618 9.056C7.96952 8.65733 8.75818 8.458 9.64218 8.458C10.6649 8.458 11.4492 8.601 11.9952 8.887C12.5412 9.173 12.8142 9.59767 12.8142 10.161C12.8142 10.5943 12.6972 10.954 12.4632 11.24C12.2292 11.5173 11.9085 11.656 11.5012 11.656C11.1545 11.656 10.8165 11.6127 10.4872 11.526C10.1665 11.4307 9.78952 11.383 9.35618 11.383C8.80152 11.383 8.36385 11.5433 8.04318 11.864C7.72252 12.1847 7.56218 12.605 7.56218 13.125C7.56218 13.6363 7.72252 14.0653 8.04318 14.412C8.36385 14.75 8.80152 14.919 9.35618 14.919C9.65085 14.919 9.91952 14.8973 10.1622 14.854C10.4135 14.802 10.6562 14.75 10.8902 14.698C11.1329 14.646 11.3929 14.62 11.6702 14.62C12.1295 14.62 12.4675 14.7717 12.6842 15.075C12.9009 15.3697 13.0092 15.738 13.0092 16.18C13.0092 16.622 12.8489 16.9817 12.5282 17.259C12.2075 17.5277 11.7829 17.7227 11.2542 17.844C10.7342 17.9653 10.1665 18.026 9.55118 18.026ZM17.3906 18.039C16.9053 18.039 16.4156 17.9913 15.9216 17.896C15.4363 17.792 14.9856 17.6447 14.5696 17.454C14.1623 17.2547 13.8329 17.0163 13.5816 16.739C13.3303 16.453 13.2046 16.1237 13.2046 15.751C13.2046 15.2743 13.3563 14.893 13.6596 14.607C13.9629 14.321 14.3183 14.1867 14.7256 14.204C15.0463 14.2127 15.3669 14.282 15.6876 14.412C16.0083 14.5333 16.3333 14.6547 16.6626 14.776C17.0006 14.8973 17.3386 14.958 17.6766 14.958C18.0146 14.958 18.2486 14.9147 18.3786 14.828C18.5086 14.7413 18.5736 14.6243 18.5736 14.477C18.5736 14.3037 18.4826 14.1607 18.3006 14.048C18.1186 13.9353 17.8889 13.8487 17.6116 13.788L16.9746 13.632C16.3159 13.476 15.7266 13.3027 15.2066 13.112C14.6866 12.9127 14.2749 12.6527 13.9716 12.332C13.6769 12.0027 13.5296 11.565 13.5296 11.019C13.5296 10.421 13.6943 9.93567 14.0236 9.563C14.3529 9.18167 14.7993 8.90433 15.3626 8.731C15.9259 8.55767 16.5543 8.471 17.2476 8.471C17.9583 8.471 18.5823 8.54467 19.1196 8.692C19.6569 8.83933 20.0729 9.05167 20.3676 9.329C20.6709 9.60633 20.8226 9.94433 20.8226 10.343C20.8226 10.7677 20.7056 11.1013 20.4716 11.344C20.2463 11.578 19.9429 11.695 19.5616 11.695C19.3103 11.695 19.0459 11.6517 18.7686 11.565C18.4999 11.4783 18.2139 11.396 17.9106 11.318C17.6159 11.2313 17.2996 11.188 16.9616 11.188C16.6583 11.188 16.4286 11.2357 16.2726 11.331C16.1166 11.4177 16.0386 11.5347 16.0386 11.682C16.0386 11.864 16.1426 11.9983 16.3506 12.085C16.5586 12.1717 16.9009 12.2757 17.3776 12.397L18.1056 12.566C18.7036 12.7133 19.2279 12.891 19.6786 13.099C20.1293 13.307 20.4803 13.58 20.7316 13.918C20.9829 14.256 21.1086 14.698 21.1086 15.244C21.1086 15.9027 20.9526 16.44 20.6406 16.856C20.3286 17.2633 19.8953 17.5623 19.3406 17.753C18.7859 17.9437 18.1359 18.039 17.3906 18.039Z" fill="#EEEEEE"/>
</svg>
